<svg width="24" height="25" viewBox="0 0 24 25" fill="none" xmlns="http://www.w3.org/2000/svg">
<g clip-path="url(#clip0_1_78)">
<path d="M12 24.25C18.6274 24.25 24 18.8774 24 12.25C24 5.62258 18.6274 0.25 12 0.25C5.37258 0.25 0 5.62258 0 12.25C0 18.8774 5.37258 24.25 12 24.25Z" fill="#F0F0F0"/>
<path d="M2.48063 4.94409C1.53802 6.17048 0.827251 7.584 0.413391 9.11958H6.65611L2.48063 4.94409Z" fill="#0052B4"/>
<path d="M23.5866 9.11953C23.1728 7.584 22.4619 6.17048 21.5194 4.94409L17.344 9.11953H23.5866Z" fill="#0052B4"/>
<path d="M0.413391 15.3804C0.827297 16.9159 1.53806 18.3294 2.48063 19.5558L6.65597 15.3804H0.413391Z" fill="#0052B4"/>
<path d="M19.3058 2.73061C18.0794 1.788 16.666 1.07724 15.1304 0.66333V6.906L19.3058 2.73061Z" fill="#0052B4"/>
<path d="M4.69415 21.7693C5.92054 22.7119 7.33406 23.4227 8.86959 23.8366V17.594L4.69415 21.7693Z" fill="#0052B4"/>
<path d="M8.86954 0.66333C7.33401 1.07724 5.9205 1.788 4.69415 2.73056L8.86954 6.90595V0.66333Z" fill="#0052B4"/>
<path d="M15.1305 23.8366C16.666 23.4227 18.0795 22.7119 19.3059 21.7694L15.1305 17.594V23.8366Z" fill="#0052B4"/>
<path d="M17.344 15.3804L21.5194 19.5558C22.4619 18.3295 23.1728 16.9159 23.5866 15.3804H17.344Z" fill="#0052B4"/>
<path d="M23.8984 10.6848H13.5653H13.5653V0.351578C13.0529 0.284875 12.5305 0.25 12 0.25C11.4694 0.25 10.9471 0.284875 10.4348 0.351578V10.6847V10.6847H0.101578C0.034875 11.1971 0 11.7195 0 12.25C0 12.7806 0.034875 13.3029 0.101578 13.8152H10.4347H10.4347V24.1484C10.9471 24.2151 11.4694 24.25 12 24.25C12.5305 24.25 13.0529 24.2152 13.5652 24.1484V13.8153V13.8153H23.8984C23.9651 13.3029 24 12.7806 24 12.25C24 11.7195 23.9651 11.1971 23.8984 10.6848Z" fill="#D80027"/>
<path d="M15.1305 15.3804L20.4853 20.7352C20.7316 20.489 20.9665 20.2317 21.1906 19.9648L16.6062 15.3804H15.1305V15.3804Z" fill="#D80027"/>
<path d="M8.86954 15.3806H8.86944L3.51468 20.7354C3.76087 20.9817 4.01826 21.2166 4.28507 21.4408L8.86954 16.8562V15.3806Z" fill="#D80027"/>
<path d="M8.86954 9.1196V9.11951L3.51473 3.76465C3.26845 4.01084 3.03351 4.26823 2.80936 4.53504L7.39387 9.11955H8.86954V9.1196Z" fill="#D80027"/>
<path d="M15.1305 9.11956L20.4853 3.76465C20.2391 3.51837 19.9817 3.28344 19.7149 3.05933L15.1305 7.64384V9.11956Z" fill="#D80027"/>
</g>
<defs>
<clipPath id="clip0_1_78">
<rect width="24" height="24" fill="white" transform="translate(0 0.25)"/>
</clipPath>
</defs>
</svg>
